<svg width="24" height="24" viewBox="0 0 24 24" fill="none" xmlns="http://www.w3.org/2000/svg">
<path d="M6.28571 22V18.6667H4V16.4444H6.28571V14.2222H4V12H6.28571V2H13.7143C15.4667 2 16.9524 2.59259 18.1714 3.77778C19.3905 4.96296 20 6.40741 20 8.11111C20 9.81482 19.3905 11.2593 18.1714 12.4444C16.9524 13.6296 15.4667 14.2222 13.7143 14.2222H8.57143V16.4444H13.1429V18.6667H8.57143V22H6.28571ZM8.57143 12H13.7143C14.819 12 15.7619 11.6204 16.5429 10.8611C17.3238 10.1019 17.7143 9.18519 17.7143 8.11111C17.7143 7.03704 17.3238 6.12037 16.5429 5.36111C15.7619 4.60185 14.819 4.22222 13.7143 4.22222H8.57143V12Z" fill="#0036AC"/>
</svg>
