<svg width="24" height="24" viewBox="0 0 24 24" fill="none" xmlns="http://www.w3.org/2000/svg">
<path d="M22.0655 9.81552L22.244 9.66067L22.0086 9.64037L14.8785 9.02554L12.0921 2.46093L11.9999 2.2439L11.9079 2.46098L9.12146 9.03546L1.99155 9.64036L1.75538 9.66039L1.93452 9.81558L7.3489 14.5061L5.72262 21.4773L5.66877 21.7081L5.87167 21.5856L12 17.8868L18.1283 21.5856L18.3308 21.7078L18.2774 21.4774L16.661 14.5061L22.0655 9.81552ZM12.0517 15.8144L12 15.7832L11.9483 15.8144L8.39133 17.9618L9.33738 13.9128L9.3511 13.854L9.30553 13.8145L6.16392 11.0892L10.3086 10.7296L10.3687 10.7244L10.3921 10.6689L12.0002 6.85692L13.6179 10.679L13.6414 10.7344L13.7014 10.7396L17.8461 11.0992L14.7045 13.8245L14.6589 13.864L14.6726 13.9228L15.6186 17.9716L12.0517 15.8144Z" fill="#0036AC" stroke="#0036AC" stroke-width="0.2"/>
</svg>
